<?xml version="1.0" encoding="UTF-8"?>
<svg id="Layer_1" xmlns="http://www.w3.org/2000/svg" viewBox="0 0 588.73 209.73">
  <defs>
    <style>
      .cls-1 {
        fill: none;
      }
    </style>
  </defs>
  <path class="cls-1" d="M441.44,66.3c6.78,0,13.91-1.07,21.36-3.23,5.79-1.49,8.69-3.72,8.69-6.7,0-1.49-.58-2.74-1.74-3.73-1.16-.99-2.56-1.49-4.22-1.49-3.81,0-8.03.83-12.67,2.48-4.64,1.66-9.03,3.73-13.16,6.21-1,.84-1.49,1.74-1.49,2.74v.25c0,.83.28,1.57.87,2.23.57.66,1.36,1.08,2.36,1.24Z"/>
  <path class="cls-1" d="M456.33,102.15h30.7c-.55-2.38-1.75-4.4-3.61-6.04-2.65-2.31-5.97-3.48-9.94-3.48-6.29,0-11.1,1.74-14.41,5.22-1.26,1.26-2.17,2.7-2.74,4.3Z"/>
  <path class="cls-1" d="M363.75,95.05c-2.8-2.72-6.39-4.09-10.75-4.09s-7.95,1.4-10.76,4.21c-1.95,1.95-3.2,4.28-3.79,6.98h29.16c-.57-2.78-1.85-5.16-3.85-7.1Z"/>
  <path class="cls-1" d="M338.55,110.15c.63,2.51,1.85,4.68,3.68,6.53,2.81,2.8,6.39,4.21,10.76,4.21s7.95-1.44,10.75-4.33c1.79-1.84,2.99-3.97,3.64-6.41h-28.84Z"/>
  <path class="cls-1" d="M345.87,163.09c-1.95-1.02-3.94-1.76-5.96-2.22-2.19-.63-5.54-1.33-10.06-2.11-4.52-.78-8.41-1.17-11.69-1.17-.78,0-1.52.35-2.22,1.06-.7.7-1.05,1.51-1.05,2.45,0,1.09.54,1.95,1.64,2.57,1.71,1.09,4.44,2.34,8.18,3.74,3.74,1.41,7.09,2.57,10.05,3.51l2.34.7,1.4.23c.62.16,1.29.28,1.99.35.7.09,1.44.12,2.22.12,1.56,0,2.96-.43,4.21-1.28,1.25-.86,1.87-2.07,1.87-3.63,0-1.87-.97-3.31-2.92-4.32Z"/>
  <path class="cls-1" d="M456.09,110.15c.41,1.44,1.07,2.81,1.99,4.1,1.65,2.32,3.89,3.89,6.71,4.72,1.49.49,3.06.74,4.72.74,6.12,0,11.09-2.07,14.9-6.21.89-1.03,1.57-2.15,2.06-3.35h-30.38Z"/>
  <path d="M584.73,101.93h-.01l-50.63.15v-25.59c0-19.87-4.8-34.94-14.41-45.21-10.6-11.76-26.33-17.64-47.19-17.64-8.62,0-16.57.75-23.85,2.24-7.29,1.49-14.66,3.97-22.11,7.45-2.15.99-3.89,2.57-5.22,4.72-1.32,2.15-1.98,4.47-1.98,6.95,0,.67.16,1.83.49,3.48,5.3,20.04,8.2,30.64,8.7,31.8-4.73,3.38-8.56,7.61-11.46,12.7v-25.22c0-3.27-1.05-6.08-3.16-8.42-2.1-2.33-4.64-3.5-7.6-3.5h-33.9c-2.96,0-5.45,1.17-7.48,3.5-6.7-3.89-14.42-5.84-23.14-5.84-9.82,0-18.75,2.73-26.77,8.18-8.03,5.46-14.35,12.9-18.94,22.33-4.13,8.47-6.39,17.85-6.81,28.14h-87.74V10.58c0-2.91-1-5.41-2.99-7.48-2-2.07-4.3-3.1-6.91-3.1h-34.98c-2.91,0-5.37,1.15-7.36,3.45-2,2.3-2.99,5.06-2.99,8.28v90.42h-4.84V32.17c0-3.06-.95-5.7-2.84-7.89-1.91-2.19-4.24-3.28-7.02-3.28h-32c-2.78,0-5.15,1.09-7.12,3.28-1.98,2.19-2.96,4.83-2.96,7.89l1.09,62.91c0,.27,0,.54-.02.79-.07,2.33-.5,3.86-1.29,4.58-.88.81-1.9,1.21-3.07,1.21h-.22c-1.02,0-1.9-.44-2.63-1.32-.65-.79-1.01-2.28-1.07-4.47-.02-.25-.02-.52-.02-.79l1.09-62.91c0-3.06-.99-5.7-2.96-7.89-1.97-2.19-4.35-3.28-7.12-3.28h-31.78c-2.78,0-5.15,1.09-7.13,3.28-1.97,2.19-2.96,4.83-2.96,7.89v66.2c0,1.27.04,2.5.09,3.72l-27.49-.16h-.02C1.8,101.93.01,103.71,0,105.91c-.01,2.21,1.77,4.01,3.98,4.02l28.34.17c1.51,9.38,4.93,17.21,10.28,23.45,7.45,8.69,17.39,13.04,29.81,13.04,7.31,0,13.95-1.83,19.95-5.48,2.19,2.19,4.6,3.29,7.23,3.29h32c2.78,0,5.11-1.1,7.02-3.29,1.89-2.19,2.84-4.82,2.84-7.89v-23.07h4.84v10.67c0,13.5,3.37,24.94,10.12,34.29,6.75,9.36,18.49,14.04,35.21,14.04,2.61,0,7.14-.38,13.58-1.15l1.61-.23c2.61-.46,4.8-1.8,6.56-4.03,1.77-2.22,2.65-4.79,2.65-7.71v-24.62c0-3.37-1.23-6.29-3.68-8.75-1.08-1.07-2.27-1.8-3.57-2.18-1.3-.38-2.88-.58-4.72-.58h-2.53v-9.75h87.78c.39,7.65,1.83,14.82,4.31,21.49,2.96,7.95,7.09,14.81,12.4,20.58-.79.62-1.49,1.63-2.11,3.03l-10.99,25.25c-.78,1.88-1.17,3.59-1.17,5.15,0,2.18.51,4.21,1.52,6.08,1.02,1.87,2.46,3.35,4.33,4.44,16.05,9.04,33.9,13.56,53.54,13.56,22.29,0,39.04-6.16,50.27-18.47,5.29-5.93,9.23-13.09,11.8-21.51,2.57-8.42,3.86-18.39,3.86-29.93v-3.89c3.75,6.66,8.9,11.84,15.43,15.58,6.96,3.97,14.99,5.96,24.1,5.96,3.48,0,6.79-.62,9.94-1.86,3.14-1.25,6.78-3.02,10.92-5.34l2.24-1.25c.5.67.99,1.41,1.49,2.24.66,1.16,1.37,2.07,2.11,2.73.75.67,1.95,1,3.6,1h36.02c3.15,0,5.8-1.25,7.95-3.73,2.15-2.48,3.23-5.47,3.23-8.94v-32.23l50.66-.15c2.21,0,4-1.8,3.99-4.01,0-2.21-1.8-3.99-4-3.99ZM473.48,92.63c3.97,0,7.29,1.17,9.94,3.48,1.87,1.64,3.06,3.66,3.61,6.04h-30.7c.58-1.6,1.48-3.04,2.74-4.3,3.31-3.48,8.12-5.22,14.41-5.22ZM438.21,62.58c0-1,.49-1.9,1.49-2.74,4.13-2.48,8.52-4.55,13.16-6.21,4.64-1.65,8.86-2.48,12.67-2.48,1.66,0,3.06.5,4.22,1.49,1.16.99,1.74,2.24,1.74,3.73,0,2.98-2.9,5.21-8.69,6.7-7.45,2.16-14.58,3.23-21.36,3.23-1-.16-1.79-.58-2.36-1.24-.59-.66-.87-1.4-.87-2.23v-.25ZM342.24,95.17c2.81-2.81,6.39-4.21,10.76-4.21s7.95,1.37,10.75,4.09c2.01,1.95,3.28,4.32,3.85,7.1h-29.16c.59-2.7,1.85-5.04,3.79-6.98ZM346.92,171.04c-1.25.85-2.65,1.28-4.21,1.28-.78,0-1.52-.03-2.22-.12-.7-.07-1.37-.19-1.99-.35l-1.4-.23-2.34-.7c-2.96-.94-6.31-2.1-10.05-3.51-3.74-1.4-6.47-2.65-8.18-3.74-1.1-.62-1.64-1.48-1.64-2.57,0-.94.35-1.75,1.05-2.45.7-.71,1.44-1.06,2.22-1.06,3.28,0,7.17.39,11.69,1.17,4.52.78,7.87,1.48,10.06,2.11,2.02.46,4.01,1.2,5.96,2.22,1.95,1.01,2.92,2.45,2.92,4.32,0,1.56-.62,2.77-1.87,3.63ZM353,120.89c-4.37,0-7.95-1.41-10.76-4.21-1.83-1.84-3.05-4.02-3.68-6.53h28.84c-.65,2.43-1.85,4.57-3.64,6.41-2.8,2.89-6.39,4.33-10.75,4.33ZM469.51,119.71c-1.66,0-3.23-.25-4.72-.74-2.82-.83-5.06-2.4-6.71-4.72-.92-1.29-1.58-2.66-1.99-4.1h30.38c-.49,1.2-1.17,2.31-2.06,3.35-3.81,4.14-8.78,6.21-14.9,6.21Z"/>
</svg>