<?xml version="1.0" encoding="UTF-8"?>
<svg id="Layer_1" xmlns="http://www.w3.org/2000/svg" viewBox="0 0 588.73 209.73">
  <defs>
    <style>
      .cls-1 {
        fill: none;
      }
    </style>
  </defs>
  <path class="cls-1" d="M441.44,66.3c6.78,0,13.91-1.07,21.36-3.23,5.79-1.49,8.69-3.72,8.69-6.7,0-1.49-.58-2.74-1.74-3.73-1.16-.99-2.56-1.49-4.22-1.49-3.81,0-8.03.83-12.67,2.48-4.64,1.66-9.03,3.73-13.16,6.21-1,.84-1.49,1.74-1.49,2.74v.25c0,.83.28,1.57.87,2.23.57.66,1.36,1.08,2.36,1.24Z"/>
  <path class="cls-1" d="M457.39,102.15h28.72c.49,0,.82-.48.67-.94-.63-1.98-1.74-3.68-3.36-5.1-2.65-2.31-5.97-3.48-9.94-3.48-6.29,0-11.1,1.74-14.41,5.22-.99.99-1.76,2.08-2.32,3.29-.22.47.12,1.02.64,1.02Z"/>
  <path class="cls-1" d="M363.75,95.05c-2.8-2.72-6.39-4.09-10.75-4.09s-7.95,1.4-10.76,4.21c-1.73,1.73-2.91,3.77-3.57,6.1-.13.44.23.88.69.88h27.35c.46,0,.81-.43.69-.87-.65-2.41-1.85-4.49-3.65-6.23Z"/>
  <path class="cls-1" d="M339.49,110.15c-.47,0-.82.45-.68.9.68,2.13,1.82,4.01,3.43,5.63,2.81,2.8,6.39,4.21,10.76,4.21s7.95-1.44,10.75-4.33c1.55-1.59,2.66-3.41,3.35-5.45.16-.47-.17-.95-.66-.95h-26.95Z"/>
  <path class="cls-1" d="M345.87,163.09c-1.95-1.02-3.94-1.76-5.96-2.22-2.19-.63-5.54-1.33-10.06-2.11-4.52-.78-8.41-1.17-11.69-1.17-.78,0-1.52.35-2.22,1.06-.7.7-1.05,1.51-1.05,2.45,0,1.09.54,1.95,1.64,2.57,1.71,1.09,4.44,2.34,8.18,3.74,3.74,1.41,7.09,2.57,10.05,3.51l2.3.69s.06.02.09.02l1.36.22c.62.16,1.29.28,1.99.35.7.09,1.44.12,2.22.12,1.56,0,2.96-.43,4.21-1.28,1.25-.86,1.87-2.07,1.87-3.63,0-1.87-.97-3.31-2.92-4.32Z"/>
  <path class="cls-1" d="M457.07,110.15c-.5,0-.83.5-.66.97.4,1.09.96,2.13,1.67,3.13,1.65,2.32,3.89,3.89,6.71,4.72,1.49.49,3.06.74,4.72.74,6.12,0,11.09-2.07,14.9-6.21.63-.73,1.15-1.5,1.58-2.31.25-.47-.1-1.04-.63-1.04h-28.29Z"/>
  <path d="M585.73,101.93h-1.01s-47.34.14-47.34.14c-1.82,0-3.3-1.47-3.3-3.29v-22.3c0-19.87-4.8-34.94-14.41-45.21-10.6-11.76-26.33-17.64-47.19-17.64-8.62,0-16.57.75-23.85,2.24-7.29,1.49-14.66,3.97-22.11,7.45-2.15.99-3.89,2.57-5.22,4.72-1.32,2.15-1.98,4.47-1.98,6.95,0,.67.16,1.83.49,3.47h0c5.16,19.54,8.05,30.1,8.66,31.7.03.07,0,.14-.06.18-4.5,3.23-8.18,7.24-11.01,12.03-.1.17-.35.1-.35-.09v-24.53c0-3.27-1.05-6.08-3.16-8.42-2.1-2.33-4.64-3.5-7.6-3.5h-33.9c-2.91,0-5.37,1.13-7.38,3.39-.06.07-.15.08-.23.04-6.67-3.84-14.35-5.77-23.01-5.77-9.82,0-18.75,2.73-26.77,8.18-8.03,5.46-14.35,12.9-18.94,22.33-3.72,7.63-5.93,16.01-6.63,25.12-.13,1.71-1.56,3.02-3.27,3.02h-81.36c-1.81,0-3.29-1.47-3.29-3.29V10.58c0-2.91-1-5.41-2.99-7.48-2-2.07-4.3-3.1-6.91-3.1h-34.98c-2.91,0-5.37,1.15-7.36,3.45-2,2.3-2.99,5.06-2.99,8.28v88.08c0,1.3-1.05,2.35-2.35,2.35h0c-1.38,0-2.49-1.12-2.49-2.49V32.17c0-3.06-.95-5.7-2.84-7.89-1.91-2.19-4.24-3.28-7.02-3.28h-32c-2.78,0-5.15,1.09-7.12,3.28-1.98,2.19-2.96,4.83-2.96,7.89l1.09,62.91c0,.27,0,.54-.02.79-.07,2.33-.5,3.86-1.29,4.58-.88.81-1.9,1.21-3.07,1.21h-.22c-1.02,0-1.9-.44-2.63-1.32-.65-.79-1.01-2.28-1.07-4.47-.02-.25-.02-.52-.02-.79l1.09-62.91c0-3.06-.99-5.7-2.96-7.89-1.97-2.19-4.35-3.28-7.12-3.28h-31.78c-2.78,0-5.15,1.09-7.13,3.28-1.97,2.19-2.96,4.83-2.96,7.89v66.2h0c0,2.05-1.67,3.71-3.72,3.7l-23.67-.14h-1.03c-.62,0-1.23.26-1.64.73-2.95,3.36-.63,7.25,2.62,7.27l24.97.15c1.93.01,3.57,1.37,3.98,3.25,1.73,7.96,4.95,14.7,9.67,20.22,7.45,8.69,17.39,13.04,29.81,13.04,7.26,0,13.86-1.8,19.83-5.4.07-.04.17-.03.23.03,2.16,2.12,4.54,3.19,7.12,3.19h32c2.78,0,5.11-1.1,7.02-3.29,1.89-2.19,2.84-4.82,2.84-7.89v-20.67c0-1.32,1.07-2.4,2.4-2.4h.29c1.19,0,2.16.97,2.16,2.16v8.51c0,13.5,3.37,24.94,10.12,34.29,6.75,9.36,18.49,14.04,35.21,14.04,2.61,0,7.14-.38,13.58-1.15l1.61-.23c2.61-.46,4.8-1.8,6.56-4.03,1.77-2.22,2.65-4.79,2.65-7.71v-24.62c0-3.37-1.23-6.29-3.68-8.75-1.08-1.07-2.27-1.8-3.57-2.18-1.3-.38-2.88-.58-4.72-.58h-2.34c-.11,0-.19-.09-.19-.19v-7.62c0-1.07.87-1.93,1.93-1.93h82.79c1.7,0,3.11,1.29,3.26,2.98.58,6.54,1.94,12.71,4.1,18.51,2.94,7.89,7.02,14.7,12.27,20.44.07.08.06.19-.02.26-.73.63-1.38,1.6-1.96,2.91l-10.99,25.25c-.78,1.88-1.17,3.59-1.17,5.15,0,2.18.51,4.21,1.52,6.08,1.02,1.87,2.46,3.35,4.33,4.44,16.05,9.04,33.9,13.56,53.54,13.56,22.29,0,39.04-6.16,50.27-18.47,5.29-5.93,9.23-13.09,11.8-21.51,2.57-8.42,3.86-18.39,3.86-29.93v-3.19c0-.2.25-.26.35-.09,3.72,6.37,8.75,11.34,15.08,14.97,6.96,3.97,14.99,5.96,24.1,5.96,3.48,0,6.79-.62,9.94-1.86,3.14-1.25,6.78-3.02,10.92-5.34l2.09-1.17c.09-.05.19-.03.25.05.47.63.92,1.33,1.39,2.11.66,1.16,1.37,2.07,2.11,2.73.75.67,1.95,1,3.6,1h36.02c3.15,0,5.8-1.25,7.95-3.73,2.15-2.48,3.23-5.47,3.23-8.94v-28.96c0-1.81,1.46-3.28,3.28-3.29l47.38-.14c3.25-.01,5.58-3.89,2.64-7.26-.41-.47-1.03-.74-1.66-.74ZM473.48,92.63c3.97,0,7.29,1.17,9.94,3.48l1.61,1.42c1.82,1.61.68,4.62-1.75,4.62h-22.42c-2.25,0-3.37-2.71-1.79-4.3h0c3.31-3.48,8.12-5.22,14.41-5.22ZM438.21,62.58c0-1,.49-1.9,1.49-2.74,4.13-2.48,8.52-4.55,13.16-6.21,4.64-1.65,8.86-2.48,12.67-2.48,1.66,0,3.06.5,4.22,1.49,1.16.99,1.74,2.24,1.74,3.73,0,2.98-2.9,5.21-8.69,6.7-7.45,2.16-14.58,3.23-21.36,3.23-1-.16-1.79-.58-2.36-1.24-.59-.66-.87-1.4-.87-2.23v-.25ZM342.24,95.17c2.81-2.81,6.39-4.21,10.76-4.21s7.95,1.37,10.75,4.09c.83.8,1.53,1.68,2.11,2.63,1.2,1.96-.26,4.47-2.56,4.47h-21.26c-1.88,0-3.15-2-2.27-3.66.64-1.21,1.46-2.32,2.46-3.32ZM346.92,171.04c-1.25.85-2.65,1.28-4.21,1.28-.78,0-1.52-.03-2.22-.12-.7-.07-1.37-.19-1.99-.35l-1.39-.23h-.02s-2.33-.7-2.33-.7c-2.96-.94-6.31-2.1-10.05-3.51-3.74-1.4-6.47-2.65-8.18-3.74-1.1-.62-1.64-1.48-1.64-2.57,0-.94.35-1.75,1.05-2.45.7-.71,1.44-1.06,2.22-1.06,3.28,0,7.17.39,11.69,1.17,4.52.78,7.87,1.48,10.06,2.11,2.02.46,4.01,1.2,5.96,2.22,1.95,1.01,2.92,2.45,2.92,4.32,0,1.56-.62,2.77-1.87,3.63ZM353,120.89c-4.37,0-7.95-1.41-10.76-4.21-.99-1-1.81-2.09-2.44-3.29-.78-1.47.31-3.24,1.97-3.24h22.56c1.58,0,2.6,1.68,1.86,3.08-.64,1.2-1.45,2.31-2.44,3.33-2.8,2.89-6.39,4.33-10.75,4.33ZM469.51,119.71c-1.66,0-3.23-.25-4.72-.74-2.82-.83-5.06-2.4-6.71-4.72l-.36-.51c-1.07-1.5,0-3.59,1.85-3.59h23.3c1.73,0,2.67,2.03,1.54,3.35h0c-3.81,4.14-8.78,6.21-14.9,6.21Z"/>
</svg>